<?xml version="1.0" encoding="UTF-8" standalone="no"?>
<!-- Created with Inkscape (http://www.inkscape.org/) -->

<svg
   xmlns:dc="http://purl.org/dc/elements/1.1/"
   xmlns:cc="http://creativecommons.org/ns#"
   xmlns:rdf="http://www.w3.org/1999/02/22-rdf-syntax-ns#"
   xmlns:svg="http://www.w3.org/2000/svg"
   xmlns="http://www.w3.org/2000/svg"
   xmlns:sodipodi="http://sodipodi.sourceforge.net/DTD/sodipodi-0.dtd"
   xmlns:inkscape="http://www.inkscape.org/namespaces/inkscape"
   width="117.40444mm"
   height="117.40444mm"
   viewBox="0 0 415.99999 415.99999"
   id="svg2"
   version="1.1"
   inkscape:version="0.91 r13725"
   sodipodi:docname="bubble_down.svg">
  <defs
     id="defs4" />
  <sodipodi:namedview
     id="base"
     pagecolor="#ffffff"
     bordercolor="#666666"
     borderopacity="1.0"
     inkscape:pageopacity="0.0"
     inkscape:pageshadow="2"
     inkscape:zoom="0.35"
     inkscape:cx="-315.57143"
     inkscape:cy="30.857145"
     inkscape:document-units="px"
     inkscape:current-layer="layer1"
     showgrid="false"
     fit-margin-top="0"
     fit-margin-left="0"
     fit-margin-right="0"
     fit-margin-bottom="0"
     inkscape:window-width="1200"
     inkscape:window-height="1898"
     inkscape:window-x="-8"
     inkscape:window-y="-8"
     inkscape:window-maximized="1" />
  <metadata
     id="metadata7">
    <rdf:RDF>
      <cc:Work
         rdf:about="">
        <dc:format>image/svg+xml</dc:format>
        <dc:type
           rdf:resource="http://purl.org/dc/dcmitype/StillImage" />
        <dc:title></dc:title>
      </cc:Work>
    </rdf:RDF>
  </metadata>
  <g
     inkscape:label="Layer 1"
     inkscape:groupmode="layer"
     id="layer1"
     transform="translate(-203.42857,-147.21935)">
    <path
       id="path3338"
       d="m 203.42857,355.21935 c 0,114.9 93.1,208 208,208 114.9,0 208,-93.1 208,-208 0,-114.9 -93.1,-208 -208,-208 -114.9,0 -208,93.1 -208,208 z m 289.1,-43.4 c 7.5,-7.5 19.8,-7.5 27.3,0 3.8,3.8 5.6,8.7 5.6,13.6 0,4.9 -1.9,9.9 -5.7,13.7 l -94.3,94 c -7.6,6.9 -19.3,6.7 -26.6,-0.6 l -95.7,-95.4 c -7.5,-7.5 -7.6,-19.7 0,-27.3 7.5,-7.5 19.7,-7.6 27.3,0 l 81.1,81.9 81,-79.9 z"
       inkscape:connector-curvature="0" />
  </g>
</svg>
