<?xml version="1.0" encoding="UTF-8" standalone="no"?>
<!-- Created with Inkscape (http://www.inkscape.org/) -->

<svg
   xmlns:dc="http://purl.org/dc/elements/1.1/"
   xmlns:cc="http://creativecommons.org/ns#"
   xmlns:rdf="http://www.w3.org/1999/02/22-rdf-syntax-ns#"
   xmlns:svg="http://www.w3.org/2000/svg"
   xmlns="http://www.w3.org/2000/svg"
   xmlns:sodipodi="http://sodipodi.sourceforge.net/DTD/sodipodi-0.dtd"
   xmlns:inkscape="http://www.inkscape.org/namespaces/inkscape"
   width="117.41186mm"
   height="117.41186mm"
   viewBox="0 0 416.02627 416.02627"
   id="svg2"
   version="1.1"
   inkscape:version="0.91 r13725"
   sodipodi:docname="bubble_upleft.svg">
  <defs
     id="defs4" />
  <sodipodi:namedview
     id="base"
     pagecolor="#ffffff"
     bordercolor="#666666"
     borderopacity="1.0"
     inkscape:pageopacity="0.0"
     inkscape:pageshadow="2"
     inkscape:zoom="0.35"
     inkscape:cx="-198.41543"
     inkscape:cy="-49.129727"
     inkscape:document-units="px"
     inkscape:current-layer="layer1"
     showgrid="false"
     inkscape:window-width="1920"
     inkscape:window-height="1058"
     inkscape:window-x="1192"
     inkscape:window-y="-8"
     inkscape:window-maximized="1"
     fit-margin-top="0"
     fit-margin-left="0"
     fit-margin-right="0"
     fit-margin-bottom="0" />
  <metadata
     id="metadata7">
    <rdf:RDF>
      <cc:Work
         rdf:about="">
        <dc:format>image/svg+xml</dc:format>
        <dc:type
           rdf:resource="http://purl.org/dc/dcmitype/StillImage" />
        <dc:title></dc:title>
      </cc:Work>
    </rdf:RDF>
  </metadata>
  <g
     inkscape:label="Layer 1"
     inkscape:groupmode="layer"
     id="layer1"
     transform="translate(-86.272575,-67.206205)">
    <path
       id="path3338"
       d="m 441.36392,422.29755 c 81.24657,-81.24657 81.24657,-212.90985 0,-294.15642 -81.24657,-81.246566 -212.90985,-81.246566 -294.15642,0 -81.246567,81.24657 -81.246567,212.90985 0,294.15642 81.24657,81.24657 212.90985,81.24657 294.15642,0 z M 268.47631,249.40994 269.042,364.66835 c 0,10.6066 -8.69742,19.30401 -19.30402,19.30401 -10.6066,0 -19.30401,-8.69741 -19.30401,-19.30401 l 0.21213,-135.12811 c 0,-10.32376 8.20244,-18.80904 18.38478,-19.2333 l 133.1482,-0.21213 c 5.37401,0 10.18234,2.12132 13.71787,5.65685 3.46483,3.46482 5.65686,8.34386 5.65686,13.57645 0,10.6066 -8.55599,19.30402 -19.30402,19.30402 l -113.77348,0.77781 z"
       inkscape:connector-curvature="0" />
  </g>
</svg>
